<?xml version="1.0" encoding="UTF-8" standalone="no"?>
<!DOCTYPE svg PUBLIC "-//W3C//DTD SVG 1.1//EN" "http://www.w3.org/Graphics/SVG/1.1/DTD/svg11.dtd">
<svg width="100%" height="100%" viewBox="0 0 800 800" version="1.1" xmlns="http://www.w3.org/2000/svg" xmlns:xlink="http://www.w3.org/1999/xlink" xml:space="preserve" xmlns:serif="http://www.serif.com/" style="fill-rule:evenodd;clip-rule:evenodd;stroke-linejoin:round;stroke-miterlimit:2;">
    <g transform="matrix(7.0206,0,0,7.0206,-126.544,-285.957)">
        <path d="M75.731,148.984C51.601,148.984 39.518,135.493 36.518,119.052L49.911,115.521C52.842,124.896 61.52,132.687 75.209,132.687C106.6,132.687 106.802,83.579 74.659,83.579C67.786,83.579 61.694,84.73 57.427,87.829L81.116,95.703L73.994,110.279L35.072,90.206L53.535,46.429L68.171,53.56L57.085,72.237C62.122,69.501 67.995,67.728 74.817,67.728C128.313,67.729 127.977,148.984 75.731,148.984Z" style="fill:white;"/>
    </g>
</svg>
