<?xml version="1.0" encoding="UTF-8" standalone="no"?>
<!DOCTYPE svg PUBLIC "-//W3C//DTD SVG 1.1//EN" "http://www.w3.org/Graphics/SVG/1.1/DTD/svg11.dtd">
<svg width="100%" height="100%" viewBox="0 0 800 800" version="1.1" xmlns="http://www.w3.org/2000/svg" xmlns:xlink="http://www.w3.org/1999/xlink" xml:space="preserve" xmlns:serif="http://www.serif.com/" style="fill-rule:evenodd;clip-rule:evenodd;stroke-linecap:round;stroke-linejoin:round;stroke-miterlimit:1.5;">
    <g transform="matrix(1.59119,0,0,1.59119,-193.4,-310.869)">
        <path d="M364.157,671.83C291.925,664.967 247.284,628.568 225.259,580.325C217.799,567.313 211.883,553.306 207.761,538.552C207.761,538.552 213.166,537.127 220.857,535.099C247.191,528.157 275.158,537.159 292.497,558.159C312.571,582.455 344.504,599.192 387.203,599.192C529.37,599.192 530.285,376.787 384.712,376.787C354.364,376.787 327.376,381.742 308.138,394.998C308.138,394.998 319.45,401.529 334.062,409.965C369.544,430.451 381.702,475.822 361.217,511.304C361.216,511.305 361.216,511.305 361.216,511.305L176.858,404.866L283.297,220.508L347.544,257.6L311.299,320.378C333.869,310.488 358.798,305 385,305L385.428,304.999C470.502,305.001 525.516,350.377 550.845,409.26C562.479,433.39 569,460.439 569,489C569,513.263 564.294,536.435 555.745,557.652C533.343,621.83 477.8,673 389.567,673C388.719,673 387.874,672.996 387.033,672.989C386.356,672.996 385.678,673 385,673C377.953,673 370.999,672.603 364.157,671.83Z" style="fill:white;stroke:black;stroke-width:6.28px;"/>
    </g>
</svg>
